<?xml version="1.0" encoding="iso-8859-1"?>
<!-- Generator: Adobe Illustrator 18.0.0, SVG Export Plug-In . SVG Version: 6.00 Build 0)  -->
<!DOCTYPE svg PUBLIC "-//W3C//DTD SVG 1.1//EN" "http://www.w3.org/Graphics/SVG/1.1/DTD/svg11.dtd">
<svg version="1.1" id="Capa_1" xmlns="http://www.w3.org/2000/svg" xmlns:xlink="http://www.w3.org/1999/xlink" x="0px" y="0px"
	 viewBox="0 0 62.686 62.686" style="enable-background:new 0 0 62.686 62.686;" xml:space="preserve">
<g>
	<path d="M57.28,3.734h-3.663l0.245-1.386c0.103-0.583-0.058-1.18-0.438-1.633C53.044,0.262,52.483,0,51.892,0H29.304
		c-7.768,0-14.236,6.323-14.418,14.095c-0.018,0.741,0.376,1.431,1.023,1.793c3.321,1.855,5.385,5.348,5.385,9.114v4.424
		c0,1.031,0.783,1.869,1.784,1.978v4.112C12.006,38.815,4.406,48.946,4.406,60.686c0,1.104,0.896,2,2,2h48.354c1.104,0,2-0.896,2-2
		c0-11.162-7.139-21.148-17.537-24.798V30.58c0.232-0.326,0.371-0.723,0.371-1.154v-4.424c0-1.025,0.155-2.013,0.431-2.95
		c2.522,3.361,6.526,5.55,11.042,5.55c1.104,0,2-0.896,2-2s-0.896-2-2-2c-3.875,0-7.222-2.263-8.816-5.532
		c1.912-2.143,4.685-3.502,7.776-3.502c0.971,0,1.801-0.697,1.97-1.652l0.097-0.551h5.186c0.553,0,1-0.448,1-1V4.734
		C58.28,4.182,57.833,3.734,57.28,3.734z M52.668,58.686H8.493c0.837-9.535,7.609-17.479,17.041-19.685
		c0.905-0.211,1.545-1.018,1.545-1.947v-5.627h8.144v5.922c0,0.893,0.592,1.677,1.45,1.923C45.5,41.798,51.847,49.62,52.668,58.686z
		"/>
	<path d="M12.052,57.504h37.045c-1.64-6.08-6.204-11.111-12.264-13.211c-6.146,3.683-13.847,6.433-22.458,7.887
		C13.349,53.811,12.555,55.599,12.052,57.504z"/>
</g>
<g>
</g>
<g>
</g>
<g>
</g>
<g>
</g>
<g>
</g>
<g>
</g>
<g>
</g>
<g>
</g>
<g>
</g>
<g>
</g>
<g>
</g>
<g>
</g>
<g>
</g>
<g>
</g>
<g>
</g>
</svg>
